<?xml version="1.0" encoding="utf-8"?>
<!-- Generator: Adobe Illustrator 19.0.0, SVG Export Plug-In . SVG Version: 6.00 Build 0)  -->
<svg version="1.1" id="Back" xmlns="http://www.w3.org/2000/svg" xmlns:xlink="http://www.w3.org/1999/xlink" x="0px" y="0px"
	 viewBox="0 0 202 388" style="enable-background:new 0 0 202 388;" xml:space="preserve">
<g id="XMLID_9_">
	<path id="XMLID_105_" style="fill:#262626;" d="M40.506,386.093c-21.508,0-39.006-17.498-39.006-39.007V40.914
		c0-21.508,17.498-39.006,39.006-39.006h120.988c21.508,0,39.006,17.498,39.006,39.006v306.172
		c0,21.509-17.498,39.007-39.006,39.007H40.506z M101,51.525c-9.466,0-17.167,7.701-17.167,17.167S91.534,85.858,101,85.858
		s17.167-7.701,17.167-17.167S110.466,51.525,101,51.525z"/>
	<path id="XMLID_98_" style="fill:#777777;" d="M161.494,2.407C182.726,2.407,200,19.681,200,40.914v306.173
		c0,21.232-17.274,38.506-38.506,38.506H40.506C19.274,385.593,2,368.319,2,347.086V40.914C2,19.681,19.274,2.407,40.506,2.407
		H161.494 M101,86.358c9.741,0,17.667-7.925,17.667-17.667c0-9.741-7.925-17.667-17.667-17.667S83.333,58.95,83.333,68.691
		C83.333,78.433,91.259,86.358,101,86.358 M161.494,1.407H40.506C18.688,1.407,1,19.095,1,40.914v306.173
		c0,21.819,17.688,39.506,39.506,39.506h120.988c21.819,0,39.506-17.688,39.506-39.506V40.914
		C201,19.095,183.312,1.407,161.494,1.407L161.494,1.407z M101,85.358c-9.205,0-16.667-7.462-16.667-16.667
		S91.795,52.025,101,52.025s16.667,7.462,16.667,16.667S110.205,85.358,101,85.358L101,85.358z"/>
</g>
<g id="XMLID_7_">
	<path id="XMLID_53_" style="fill:#777777;" d="M101,54.025c8.087,0,14.667,6.579,14.667,14.667S109.087,83.358,101,83.358
		s-14.667-6.579-14.667-14.667S92.913,54.025,101,54.025 M101,52.025c-9.205,0-16.667,7.462-16.667,16.667
		c0,9.205,7.462,16.667,16.667,16.667s16.667-7.462,16.667-16.667C117.667,59.487,110.205,52.025,101,52.025L101,52.025z"/>
</g>
</svg>
