<?xml version="1.0" encoding="utf-8"?>
<!-- Generator: Adobe Illustrator 19.0.0, SVG Export Plug-In . SVG Version: 6.00 Build 0)  -->
<svg version="1.1" id="Concorrente" xmlns="http://www.w3.org/2000/svg" xmlns:xlink="http://www.w3.org/1999/xlink" x="0px"
	 y="0px" viewBox="0 0 202 388" style="enable-background:new 0 0 202 388;" xml:space="preserve">
<rect id="XMLID_30_" x="21.988" y="138.444" style="fill:#131313;" width="79.012" height="79.012"/>
<g id="XMLID_124_">
	<path id="XMLID_125_" style="fill:#777777;" d="M27.437,175.945c0-0.917,0.742-1.659,1.659-1.659h3.221v0.712
		c0,0.068-0.059,0.127-0.127,0.127h-3.094c-0.41,0-0.742,0.332-0.742,0.742v4.167c0,0.41,0.332,0.742,0.742,0.742h3.094
		c0.068,0,0.127,0.059,0.127,0.127v0.712h-3.221c-0.917,0-1.659-0.751-1.659-1.659V175.945z"/>
	<path id="XMLID_127_" style="fill:#777777;" d="M35.029,181.654c-0.917,0-1.659-0.742-1.659-1.659v-4.089
		c0-0.917,0.742-1.659,1.659-1.659h2.206c0.908,0,1.659,0.742,1.659,1.659v4.089c0,0.917-0.751,1.659-1.659,1.659H35.029z
		 M34.287,175.828v4.245c0,0.41,0.332,0.742,0.742,0.742h2.206c0.41,0,0.742-0.332,0.742-0.742v-4.245
		c0-0.41-0.332-0.742-0.742-0.742h-2.206C34.619,175.086,34.287,175.418,34.287,175.828z"/>
	<path id="XMLID_130_" style="fill:#777777;" d="M45.012,180.288c-0.098-0.761-0.098-1.376-0.147-2.069v-3.806
		c0-0.068,0.059-0.127,0.127-0.127h0.791v7.329h-0.849c-0.068,0-0.156-0.059-0.185-0.117l-3.338-6.217
		c-0.049-0.088-0.166-0.156-0.263-0.156c-0.088,0-0.166,0-0.166,0v6.363c0,0.068-0.059,0.127-0.127,0.127h-0.791v-7.202
		c0-0.068,0.059-0.127,0.127-0.127h1.113c0.312,0,0.683,0.224,0.829,0.498l1.991,3.757L45.012,180.288z"/>
	<path id="XMLID_132_" style="fill:#777777;" d="M46.963,175.945c0-0.917,0.742-1.659,1.659-1.659h3.221v0.712
		c0,0.068-0.059,0.127-0.127,0.127h-3.094c-0.41,0-0.742,0.332-0.742,0.742v4.167c0,0.41,0.332,0.742,0.742,0.742h3.094
		c0.068,0,0.127,0.059,0.127,0.127v0.712h-3.221c-0.917,0-1.659-0.751-1.659-1.659V175.945z"/>
	<path id="XMLID_135_" style="fill:#777777;" d="M54.555,181.654c-0.917,0-1.659-0.742-1.659-1.659v-4.089
		c0-0.917,0.742-1.659,1.659-1.659h2.206c0.908,0,1.659,0.742,1.659,1.659v4.089c0,0.917-0.751,1.659-1.659,1.659H54.555z
		 M53.814,175.828v4.245c0,0.41,0.332,0.742,0.742,0.742h2.206c0.41,0,0.742-0.332,0.742-0.742v-4.245
		c0-0.41-0.332-0.742-0.742-0.742h-2.206C54.145,175.086,53.814,175.418,53.814,175.828z"/>
	<path id="XMLID_138_" style="fill:#777777;" d="M60.508,178.102v3.386c0,0.068-0.059,0.127-0.127,0.127h-0.791v-6.763
		c0-0.312,0.254-0.566,0.566-0.566h3.065c0.917,0,1.659,0.576,1.659,1.571v0.947c0,0.859-0.615,1.327-1.327,1.513l1.561,3.299
		h-0.849c-0.068,0-0.146-0.059-0.176-0.117l-1.483-3.133h-1.249h-0.283c-0.273,0-0.478-0.078-0.547-0.263H60.508z M63.221,177.526
		c0.41,0,0.742-0.332,0.742-0.742v-0.917c0-0.41-0.332-0.742-0.742-0.742h-2.528c-0.107,0-0.185,0.088-0.185,0.185v2.03
		c0,0.107,0.088,0.185,0.185,0.185H63.221z"/>
	<path id="XMLID_141_" style="fill:#777777;" d="M66.812,178.102v3.386c0,0.068-0.059,0.127-0.127,0.127h-0.791v-6.763
		c0-0.312,0.254-0.566,0.566-0.566h3.065c0.917,0,1.659,0.576,1.659,1.571v0.947c0,0.859-0.615,1.327-1.327,1.513l1.561,3.299
		h-0.849c-0.068,0-0.146-0.059-0.176-0.117l-1.483-3.133h-1.249h-0.283c-0.273,0-0.478-0.078-0.547-0.263H66.812z M69.525,177.526
		c0.41,0,0.742-0.332,0.742-0.742v-0.917c0-0.41-0.332-0.742-0.742-0.742h-2.528c-0.107,0-0.185,0.088-0.185,0.185v2.03
		c0,0.107,0.088,0.185,0.185,0.185H69.525z"/>
	<path id="XMLID_144_" style="fill:#777777;" d="M73.116,175.867v1.854c0.098-0.117,0.273-0.195,0.478-0.195h3.211v0.712
		c0,0.068-0.059,0.127-0.127,0.127h-3.562v1.669c0,0.41,0.332,0.742,0.742,0.742h3.162c0.068,0,0.127,0.059,0.127,0.127v0.712
		h-3.289c-0.917,0-1.659-0.742-1.659-1.659v-4.011c0-0.917,0.742-1.659,1.659-1.659h3.289v0.712c0,0.068-0.059,0.127-0.127,0.127
		h-3.162C73.448,175.125,73.116,175.457,73.116,175.867z"/>
	<path id="XMLID_146_" style="fill:#777777;" d="M82.992,180.288c-0.098-0.761-0.098-1.376-0.147-2.069v-3.806
		c0-0.068,0.059-0.127,0.127-0.127h0.791v7.329h-0.849c-0.068,0-0.156-0.059-0.185-0.117l-3.338-6.217
		c-0.049-0.088-0.166-0.156-0.263-0.156c-0.088,0-0.166,0-0.166,0v6.363c0,0.068-0.059,0.127-0.127,0.127h-0.791v-7.202
		c0-0.068,0.059-0.127,0.127-0.127h1.113c0.312,0,0.683,0.224,0.829,0.498l1.991,3.757L82.992,180.288z"/>
	<path id="XMLID_148_" style="fill:#777777;" d="M89.852,174.286v0.712c0,0.068-0.059,0.127-0.127,0.127h-2.089v6.363
		c0,0.068-0.049,0.127-0.127,0.127h-0.79v-6.49h-2.186v-0.712c0-0.068,0.059-0.127,0.127-0.127H89.852z"/>
	<path id="XMLID_18_" style="fill:#777777;" d="M91.52,175.867v1.854c0.098-0.117,0.273-0.195,0.478-0.195h3.211v0.712
		c0,0.068-0.059,0.127-0.127,0.127H91.52v1.669c0,0.41,0.332,0.742,0.742,0.742h3.162c0.068,0,0.127,0.059,0.127,0.127v0.712h-3.289
		c-0.917,0-1.659-0.742-1.659-1.659v-4.011c0-0.917,0.742-1.659,1.659-1.659h3.289v0.712c0,0.068-0.059,0.127-0.127,0.127h-3.162
		C91.852,175.125,91.52,175.457,91.52,175.867z"/>
</g>
</svg>
