<?xml version="1.0" encoding="utf-8"?>
<!-- Generator: Adobe Illustrator 19.0.0, SVG Export Plug-In . SVG Version: 6.00 Build 0)  -->
<svg version="1.1" id="Front" xmlns="http://www.w3.org/2000/svg" xmlns:xlink="http://www.w3.org/1999/xlink" x="0px" y="0px"
	 viewBox="0 0 202 388" style="enable-background:new 0 0 202 388;" xml:space="preserve">
<g id="XMLID_12_">
	<path id="XMLID_413_" style="fill:#262626;" d="M40.506,386.093c-21.508,0-39.006-17.498-39.006-39.007V40.914
		c0-21.508,17.498-39.006,39.006-39.006h120.988c21.508,0,39.006,17.498,39.006,39.006v306.172
		c0,21.509-17.498,39.007-39.006,39.007H40.506z M60.876,363.253c-1.297,0-2.352,1.055-2.352,2.352s1.055,2.353,2.352,2.353h80.247
		c1.297,0,2.353-1.056,2.353-2.353s-1.056-2.352-2.353-2.352H60.876z M17.167,335.55h167.667V38.253H17.167V335.55z M76,20.043
		c-1.297,0-2.352,1.055-2.352,2.352s1.055,2.352,2.352,2.352h50c1.297,0,2.352-1.055,2.352-2.352s-1.055-2.352-2.352-2.352H76z"/>
	<path id="XMLID_373_" style="fill:#777777;" d="M161.494,2.407C182.726,2.407,200,19.681,200,40.914v306.173
		c0,21.232-17.274,38.506-38.506,38.506H40.506C19.274,385.593,2,368.319,2,347.086V40.914C2,19.681,19.274,2.407,40.506,2.407
		H161.494 M76,25.247h50c1.573,0,2.852-1.279,2.852-2.852s-1.279-2.852-2.852-2.852H76c-1.573,0-2.852,1.279-2.852,2.852
		S74.427,25.247,76,25.247 M16.667,336.049h1h166.667h1v-1V38.753v-1h-1H17.667h-1v1v296.296V336.049 M60.877,368.457h80.247
		c1.573,0,2.852-1.279,2.852-2.852s-1.279-2.852-2.852-2.852H60.877c-1.573,0-2.852,1.279-2.852,2.852
		S59.304,368.457,60.877,368.457 M161.494,1.407H40.506C18.688,1.407,1,19.095,1,40.914v306.173
		c0,21.819,17.688,39.506,39.506,39.506h120.988c21.819,0,39.506-17.688,39.506-39.506V40.914
		C201,19.095,183.312,1.407,161.494,1.407L161.494,1.407z M76,24.247c-1.023,0-1.852-0.829-1.852-1.852
		c0-1.023,0.829-1.852,1.852-1.852h50c1.023,0,1.852,0.829,1.852,1.852c0,1.023-0.829,1.852-1.852,1.852H76L76,24.247z
		 M17.667,335.049V38.753h166.667v296.296H17.667L17.667,335.049z M60.877,367.457c-1.023,0-1.852-0.829-1.852-1.852
		c0-1.023,0.829-1.852,1.852-1.852h80.247c1.023,0,1.852,0.829,1.852,1.852c0,1.023-0.829,1.852-1.852,1.852H60.877L60.877,367.457z
		"/>
</g>
</svg>
