<?xml version="1.0" encoding="utf-8"?>
<!-- Generator: Adobe Illustrator 19.0.0, SVG Export Plug-In . SVG Version: 6.00 Build 0)  -->
<svg version="1.1" id="Layer_1" xmlns="http://www.w3.org/2000/svg" xmlns:xlink="http://www.w3.org/1999/xlink" x="0px" y="0px"
	 viewBox="1614 12 1280 768" style="enable-background:new 1614 12 1280 768;" xml:space="preserve">
<style type="text/css">
	.st0{fill:#262626;}
	.st1{fill:#777777;}
</style>
<g id="XMLID_12_">
	<path id="XMLID_57_" class="st0" d="M2193.5,588.1c-21.5,0-39-17.5-39-39V242.9c0-21.5,17.5-39,39-39h121c21.5,0,39,17.5,39,39
		v306.2c0,21.5-17.5,39-39,39H2193.5z M2213.9,565.3c-1.3,0-2.4,1.1-2.4,2.4s1.1,2.4,2.4,2.4h80.2c1.3,0,2.4-1.1,2.4-2.4
		s-1.1-2.4-2.4-2.4H2213.9z M2170.2,537.5h167.7V240.3h-167.7V537.5z M2229,222c-1.3,0-2.4,1.1-2.4,2.4s1.1,2.4,2.4,2.4h50
		c1.3,0,2.4-1.1,2.4-2.4s-1.1-2.4-2.4-2.4H2229z"/>
	<path id="XMLID_48_" class="st1" d="M2314.5,204.4c21.2,0,38.5,17.3,38.5,38.5v306.2c0,21.2-17.3,38.5-38.5,38.5h-121
		c-21.2,0-38.5-17.3-38.5-38.5V242.9c0-21.2,17.3-38.5,38.5-38.5L2314.5,204.4 M2229,227.2h50c1.6,0,2.9-1.3,2.9-2.9
		s-1.3-2.9-2.9-2.9h-50c-1.6,0-2.9,1.3-2.9,2.9S2227.4,227.2,2229,227.2 M2169.7,538h1h166.7h1v-1V240.8v-1h-1h-166.7h-1v1V537V538
		 M2213.9,570.5h80.2c1.6,0,2.9-1.3,2.9-2.9s-1.3-2.9-2.9-2.9h-80.2c-1.6,0-2.9,1.3-2.9,2.9S2212.3,570.5,2213.9,570.5
		 M2314.5,203.4h-121c-21.8,0-39.5,17.7-39.5,39.5v306.2c0,21.8,17.7,39.5,39.5,39.5h121c21.8,0,39.5-17.7,39.5-39.5V242.9
		C2354,221.1,2336.3,203.4,2314.5,203.4L2314.5,203.4z M2229,226.2c-1,0-1.9-0.8-1.9-1.9s0.8-1.9,1.9-1.9h50c1,0,1.9,0.8,1.9,1.9
		s-0.8,1.9-1.9,1.9H2229L2229,226.2z M2170.7,537V240.8h166.7V537L2170.7,537L2170.7,537z M2213.9,569.5c-1,0-1.9-0.8-1.9-1.9
		s0.8-1.9,1.9-1.9h80.2c1,0,1.9,0.8,1.9,1.9s-0.8,1.9-1.9,1.9H2213.9L2213.9,569.5z"/>
</g>
</svg>
