<?xml version="1.0" encoding="utf-8"?>
<!-- Generator: Adobe Illustrator 19.0.0, SVG Export Plug-In . SVG Version: 6.00 Build 0)  -->
<svg version="1.1" id="Layer_1" xmlns="http://www.w3.org/2000/svg" xmlns:xlink="http://www.w3.org/1999/xlink" x="0px" y="0px"
	 viewBox="1614 12 1280 768" style="enable-background:new 1614 12 1280 768;" xml:space="preserve">
<style type="text/css">
	.st0{opacity:0.4;fill:#262626;enable-background:new    ;}
	.st1{fill:none;stroke:#777777;stroke-width:2;stroke-miterlimit:10;}
	.st2{fill:none;stroke:#777777;stroke-miterlimit:10;}
</style>
<g id="Layer_2">
	<path id="XMLID_25_" class="st0" d="M2211.3,680.7c0,0,8.3-138.5-54-171.3c0,0,10.1,1.9,17.9-3.4c0,0,55.1-0.4,51.8-31.6
		c0,0,1.1-10.9-42.2-25.3l-35-34.1c0,0-27.5-29.2-55.4,20.6l-31.6,48.7c0,0-27,25.4-26.6,46.3l4.1,108.7
		C2040.3,639.3,2104.2,743.4,2211.3,680.7z"/>
</g>
<g id="Layer_1_1_">
	<path id="XMLID_27_" class="st1" d="M2354,477.9c3.1,0.2,14.9-0.1,25.1,13c0,0,14.5,12,24.1,20.2c0,0,17.5,17.5-10.1,30.3
		c0,0-27.6,4.4-39.7-6.3"/>
	<path id="XMLID_26_" class="st1" d="M2353.5,377.5c0,0,26.8-8.5,35.8,16.7c0,0,7.2,17.2-11.6,29.8l-24.2,9.6"/>
	<path id="XMLID_24_" class="st1" d="M1954.3,870.7c0,0,95.9-147.6,78.7-210.8c0,0-26.2-98.2,2.1-136.1"/>
	<path id="XMLID_23_" class="st2" d="M2078.1,709.1c0,0,53.4,61.2,124.3,0"/>
	<path id="XMLID_22_" class="st2" d="M2140.3,878c0,0,29.1-68.1,40.9-80.4"/>
	<path id="XMLID_21_" class="st2" d="M2204.6,599.5c0,0,51.5,54.7,55.6,73.5"/>
	<path id="XMLID_20_" class="st1" d="M2177.6,878c0,0-0.7-26.8,30.2-65.9c0,0,19.5-9.6,27.7-50.6c0,0,25.4-39.4,24.6-88.6
		c0,0,16.4-23.8,13.1-41c0,0,3.7,9.4,28.3-8.2c0,0,10.7,6.2,22.1,4.1c0,0,17.6,16,38.5,4.5c0,0,14.4-9.8,4.5-27.9
		c0,0-10.3-11-13.6-9.8c0,0-6.9-13.4-13.1-16.7"/>
	<path id="XMLID_19_" class="st2" d="M2193.8,780.5c0,0,20,3.6,14.1,31.7"/>
	<path id="XMLID_18_" class="st1" d="M2145.1,428.6"/>
	<path id="XMLID_16_" class="st1" d="M2122.7,406.2c0,0,23.6-20.4,31.3-24.2"/>
	<path id="XMLID_14_" class="st2" d="M2255.2,588.6c0,0,9.4,34.1,18.2,43.4"/>
	<path id="XMLID_13_" class="st2" d="M2279.2,588.6c0,0-0.9,6.8,7.6,12.8c0,0,4.6,14.1,14.9,21.8"/>
	<path id="XMLID_2_" class="st2" d="M2309,587.8c0,0-7.9,10.9,14.5,39.6"/>
	<path id="XMLID_1_" class="st2" d="M2353,595.6c0,0-8.9-2.7-2.6,3.9l2.7,2.6c0,0,11.8,0.5,16.8,11.3"/>
	<path id="XMLID_9_" class="st1" d="M2154.9,507.1c16.4,2.5,19.2-2,19.2-2c22.1,1.6,41.8-8.3,41.8-8.3c27.1-26.2,0-27.9,0-27.9
		c-17.2-8.2-36.9-24.6-36.9-24.6l-30.3-30.3c-24.6-23-46.7,7.4-46.7,7.4l-41,63.4c-25.4,25.4-26.9,42.6-26.9,42.6l1.2-6.7"/>
	<path id="XMLID_8_" class="st1" d="M2152.5,514.8l-1.9-9.6c0,0,19.4-8.7-5.5-76.5"/>
	<path id="XMLID_7_" class="st1" d="M2181.2,446c0,0,44.2,16.7,42.5,25.1"/>
	<path id="XMLID_6_" class="st1" d="M2210.4,673"/>
	<path id="XMLID_5_" class="st1" d="M2210.2,679.6c0,0,8.5-137.2-57.7-174.4"/>
	<path id="XMLID_4_" class="st1" d="M2374.2,486.1"/>
</g>
</svg>
